<svg xmlns="http://www.w3.org/2000/svg" width="28" height="28" fill="#fff" viewBox="0 0 24 24">
  <path d="M12 2.163c3.204 0 3.584.012 4.85.07 
  1.366.062 2.633.35 3.608 1.325.975.975 
  1.263 2.242 1.325 3.608.058 1.266.069 
  1.646.069 4.834s-.012 3.568-.07 4.834c-.062 
  1.366-.35 2.633-1.325 3.608-.975.975-2.242 
  1.263-3.608 1.325-1.266.058-1.646.069-4.834.069s-3.568-.012-4.834-.07c-1.366-.062-2.633-.35-3.608-1.325-.975-.975-1.263-2.242-1.325-3.608-.058-1.266-.069-1.646-.069-4.834s.012-3.568.07-4.834c.062-1.366.35-2.633 
  1.325-3.608.975-.975 2.242-1.263 3.608-1.325 1.266-.058 
  1.646-.069 4.834-.069z"/>
</svg>

